<svg width="642" height="475" viewBox="0 0 642 475" fill="none" xmlns="http://www.w3.org/2000/svg">
<g clip-path="url(#clip0_313_2038)">
<path d="M545.084 474.075H517.938C517.536 473.346 517.162 472.599 516.815 471.842C513.691 465.161 512.372 457.705 511.109 450.398L509.061 438.532C515.609 443.288 522.154 448.04 528.696 452.79C530.828 454.341 533.008 455.958 535.056 457.705C539.369 461.358 543.092 465.582 544.551 470.945C544.626 471.244 544.701 471.543 544.757 471.842C544.912 472.579 545.022 473.325 545.084 474.075V474.075Z" fill="#F0F0F0"/>
<path d="M548.892 471.842C548.894 471.888 548.891 471.935 548.883 471.982C548.792 472.696 548.623 473.398 548.378 474.075H536.189C535.806 473.357 535.481 472.611 535.217 471.842C534.846 470.815 534.58 469.754 534.421 468.674C534.016 465.008 534.231 461.3 535.057 457.705C535.291 456.537 535.544 455.359 535.796 454.201L537.237 447.585L544.449 459.162C546.863 463.04 549.37 467.31 548.892 471.842Z" fill="#F0F0F0"/>
<path d="M641.071 34.1533H0.928957C0.680705 34.1478 0.444482 34.0454 0.270857 33.8681C0.0972313 33.6908 0 33.4526 0 33.2046C0 32.9565 0.0972313 32.7184 0.270857 32.541C0.444482 32.3637 0.680705 32.2614 0.928957 32.2559H641.071C641.319 32.2614 641.555 32.3637 641.729 32.541C641.902 32.7184 642 32.9565 642 33.2046C642 33.4526 641.902 33.6908 641.729 33.8681C641.555 34.0454 641.319 34.1478 641.071 34.1533V34.1533Z" fill="#CACACA"/>
<path d="M21.8411 20.8715C27.4854 20.8715 32.061 16.1993 32.061 10.4358C32.061 4.67225 27.4854 0 21.8411 0C16.1967 0 11.6211 4.67225 11.6211 10.4358C11.6211 16.1993 16.1967 20.8715 21.8411 20.8715Z" fill="#3F3D56"/>
<path d="M57.1477 20.8715C62.792 20.8715 67.3677 16.1993 67.3677 10.4358C67.3677 4.67225 62.792 0 57.1477 0C51.5034 0 46.9277 4.67225 46.9277 10.4358C46.9277 16.1993 51.5034 20.8715 57.1477 20.8715Z" fill="#3F3D56"/>
<path d="M92.4504 20.8715C98.0948 20.8715 102.67 16.1993 102.67 10.4358C102.67 4.67225 98.0948 0 92.4504 0C86.8061 0 82.2305 4.67225 82.2305 10.4358C82.2305 16.1993 86.8061 20.8715 92.4504 20.8715Z" fill="#3F3D56"/>
<path d="M619.916 6.38371H594.831C594.334 6.37275 593.862 6.16804 593.514 5.8134C593.167 5.45876 592.973 4.98238 592.973 4.48629C592.973 3.99019 593.167 3.51381 593.514 3.15917C593.862 2.80453 594.334 2.59982 594.831 2.58887H619.916C620.413 2.59982 620.885 2.80453 621.232 3.15917C621.58 3.51381 621.774 3.99019 621.774 4.48629C621.774 4.98238 621.58 5.45876 621.232 5.8134C620.885 6.16804 620.413 6.37275 619.916 6.38371V6.38371Z" fill="#3F3D56"/>
<path d="M619.916 13.4989H594.831C594.334 13.488 593.862 13.2833 593.514 12.9286C593.167 12.574 592.973 12.0976 592.973 11.6015C592.973 11.1054 593.167 10.629 593.514 10.2744C593.862 9.91977 594.334 9.71505 594.831 9.7041H619.916C620.413 9.71505 620.885 9.91977 621.232 10.2744C621.58 10.629 621.774 11.1054 621.774 11.6015C621.774 12.0976 621.58 12.574 621.232 12.9286C620.885 13.2833 620.413 13.488 619.916 13.4989V13.4989Z" fill="#3F3D56"/>
<path d="M619.916 20.6142H594.831C594.334 20.6032 593.862 20.3985 593.514 20.0439C593.167 19.6892 592.973 19.2128 592.973 18.7167C592.973 18.2206 593.167 17.7443 593.514 17.3896C593.862 17.035 594.334 16.8303 594.831 16.8193H619.916C620.413 16.8303 620.885 17.035 621.232 17.3896C621.58 17.7443 621.774 18.2206 621.774 18.7167C621.774 19.2128 621.58 19.6892 621.232 20.0439C620.885 20.3985 620.413 20.6032 619.916 20.6142V20.6142Z" fill="#3F3D56"/>
<path d="M546.687 356.905H60.6444C55.5092 356.899 50.5859 354.859 46.9548 351.232C43.3237 347.605 41.2811 342.688 41.2754 337.558V95.9418C41.2812 90.8125 43.3238 85.895 46.9549 82.2681C50.5861 78.6412 55.5092 76.601 60.6444 76.5952H546.687C551.822 76.601 556.745 78.6412 560.376 82.2681C564.007 85.895 566.05 90.8125 566.056 95.9418V337.558C566.05 342.688 564.008 347.605 560.377 351.232C556.745 354.859 551.822 356.899 546.687 356.905V356.905Z" fill="#F0F0F0"/>
<path d="M600.04 422.829H113.998C108.863 422.823 103.939 420.783 100.308 417.156C96.6772 413.529 94.6347 408.611 94.6289 403.482V161.866C94.6348 156.736 96.6773 151.819 100.308 148.192C103.94 144.565 108.863 142.525 113.998 142.519H600.04C605.176 142.525 610.099 144.565 613.73 148.192C617.361 151.819 619.404 156.736 619.409 161.866V403.482C619.404 408.611 617.361 413.529 613.73 417.156C610.099 420.783 605.176 422.823 600.04 422.829Z" fill="white"/>
<path d="M600.04 422.829H113.998C108.863 422.823 103.939 420.783 100.308 417.156C96.6772 413.529 94.6347 408.611 94.6289 403.482V161.866C94.6348 156.736 96.6773 151.819 100.308 148.192C103.94 144.565 108.863 142.525 113.998 142.519H600.04C605.176 142.525 610.099 144.565 613.73 148.192C617.361 151.819 619.404 156.736 619.409 161.866V403.482C619.404 408.611 617.361 413.529 613.73 417.156C610.099 420.783 605.176 422.823 600.04 422.829ZM113.998 145.322C109.607 145.327 105.397 147.072 102.292 150.173C99.1869 153.275 97.4402 157.48 97.4352 161.866V403.482C97.4402 407.868 99.1867 412.073 102.292 415.175C105.397 418.276 109.607 420.021 113.998 420.026H600.04C604.432 420.021 608.642 418.276 611.747 415.175C614.852 412.073 616.598 407.868 616.603 403.482V161.866C616.598 157.48 614.851 153.275 611.746 150.173C608.641 147.072 604.432 145.327 600.04 145.322H113.998Z" fill="#E4E4E4"/>
<path d="M151.324 380.528H539.98V313.99C539.921 306.974 538.46 300.04 535.682 293.596C532.903 287.151 528.865 281.326 523.802 276.462L523.696 276.359C516.755 269.402 493.556 251.745 469.553 253.242C456.874 254.031 446.019 260.134 437.289 271.384C410.118 306.413 374.426 294.589 355.568 284.423C338.949 275.462 321.977 271.256 305.12 271.926C281.511 272.848 248.282 281.535 224.048 317.686C214.792 331.482 194.663 350.209 151.324 361.215L151.324 380.528Z" fill="#08C9C9"/>
<path d="M561.968 382.075H152.07C151.73 382.075 151.403 381.94 151.163 381.699C150.922 381.459 150.787 381.133 150.787 380.794V184.554C150.787 184.214 150.922 183.889 151.163 183.648C151.403 183.408 151.73 183.273 152.07 183.273C152.41 183.273 152.736 183.408 152.977 183.648C153.218 183.889 153.353 184.214 153.353 184.554V379.512H561.968C562.308 379.512 562.634 379.647 562.875 379.887C563.115 380.128 563.251 380.454 563.251 380.793C563.251 381.133 563.115 381.459 562.875 381.699C562.634 381.94 562.308 382.075 561.968 382.075V382.075Z" fill="#3F3D56"/>
<path d="M304.261 281.629C308.512 281.629 311.958 278.187 311.958 273.941C311.958 269.695 308.512 266.253 304.261 266.253C300.01 266.253 296.564 269.695 296.564 273.941C296.564 278.187 300.01 281.629 304.261 281.629Z" fill="#3F3D56"/>
<path d="M455.218 261.524C459.469 261.524 462.915 258.082 462.915 253.836C462.915 249.59 459.469 246.148 455.218 246.148C450.967 246.148 447.521 249.59 447.521 253.836C447.521 258.082 450.967 261.524 455.218 261.524Z" fill="#3F3D56"/>
<path d="M379.742 302.99C383.993 302.99 387.438 299.548 387.438 295.302C387.438 291.056 383.993 287.614 379.742 287.614C375.491 287.614 372.045 291.056 372.045 295.302C372.045 299.548 375.491 302.99 379.742 302.99Z" fill="#3F3D56"/>
<path d="M228.781 314.299C233.032 314.299 236.478 310.857 236.478 306.611C236.478 302.365 233.032 298.923 228.781 298.923C224.53 298.923 221.084 302.365 221.084 306.611C221.084 310.857 224.53 314.299 228.781 314.299Z" fill="#3F3D56"/>
<path d="M530.699 289.168C534.95 289.168 538.396 285.726 538.396 281.48C538.396 277.234 534.95 273.792 530.699 273.792C526.448 273.792 523.002 277.234 523.002 281.48C523.002 285.726 526.448 289.168 530.699 289.168Z" fill="#3F3D56"/>
<path d="M619.865 305.663C619.015 304.845 618.355 303.851 617.931 302.751C617.508 301.651 617.331 300.471 617.413 299.295C617.495 298.12 617.834 296.976 618.407 295.945C618.979 294.915 619.771 294.022 620.726 293.33L612.428 265.904L626.713 270.154L632.403 295.547C633.461 297.227 633.864 299.236 633.538 301.193C633.212 303.151 632.178 304.921 630.632 306.167C629.087 307.414 627.137 308.052 625.152 307.959C623.168 307.866 621.286 307.049 619.865 305.663V305.663Z" fill="#9E616A"/>
<path d="M485.168 142.574C485.017 143.743 485.124 144.93 485.482 146.054C485.84 147.177 486.44 148.208 487.24 149.074C488.04 149.941 489.02 150.622 490.112 151.069C491.204 151.516 492.38 151.718 493.559 151.662L504.247 178.249L512.737 166.012L501.286 142.64C501.06 140.668 500.117 138.848 498.638 137.524C497.158 136.2 495.243 135.464 493.256 135.456C491.27 135.448 489.349 136.168 487.858 137.48C486.368 138.792 485.411 140.604 485.168 142.574V142.574Z" fill="#9E616A"/>
<path d="M605.67 462.336H595.829L591.148 424.422L605.672 424.423L605.67 462.336Z" fill="#9E616A"/>
<path d="M608.18 471.865L576.449 471.863V471.463C576.449 468.191 577.751 465.053 580.067 462.74C582.383 460.426 585.524 459.127 588.8 459.126H588.8L608.18 459.127L608.18 471.865Z" fill="#2F2E41"/>
<path d="M573.467 462.024L564.086 459.058L571.078 421.5L584.925 425.879L573.467 462.024Z" fill="#9E616A"/>
<path d="M572.983 471.864L542.732 462.298L542.854 461.916C543.842 458.797 546.031 456.197 548.938 454.69C551.845 453.183 555.233 452.891 558.355 453.878L558.356 453.878L576.832 459.721L572.983 471.864Z" fill="#2F2E41"/>
<path d="M561.813 277.036C561.813 277.036 547.212 299.937 552.371 320.375C557.531 340.814 563.15 380.1 563.15 380.1L591.125 446.601L611.979 445.751L591.269 367.344L592.088 314.921C592.088 314.921 606.482 289.866 603.679 282.067C600.876 274.268 561.813 277.036 561.813 277.036Z" fill="#2F2E41"/>
<path d="M609.515 285.224C609.515 285.224 611.311 307.941 605.693 317.563C600.074 327.184 594.088 363.803 594.088 363.803L584.537 437.041L564.756 430.611L581.624 348.557L594.882 284.012L609.515 285.224Z" fill="#2F2E41"/>
<path d="M616.528 175.251L601.094 164.654L577.608 163.973L569.429 171.982L556.947 178.349L555.791 282.067C555.791 282.067 593.168 299.962 613.276 291.324L622.95 210.528C626.963 194.493 616.528 175.251 616.528 175.251Z" fill="#3F3D56"/>
<path d="M560.081 206.065H518.913L491.865 159.561L509.452 152.603L524.347 179.067L545.904 177.119L559.365 176.468C561.522 176.364 563.676 176.732 565.676 177.546C567.675 178.36 569.473 179.601 570.943 181.182C572.412 182.762 573.518 184.644 574.184 186.696C574.849 188.749 575.057 190.921 574.794 193.062V193.062C574.35 196.648 572.609 199.949 569.9 202.343C567.19 204.738 563.698 206.061 560.081 206.065V206.065Z" fill="#3F3D56"/>
<path d="M591.266 155.431C602.513 155.431 611.63 146.324 611.63 135.09C611.63 123.856 602.513 114.75 591.266 114.75C580.02 114.75 570.902 123.856 570.902 135.09C570.902 146.324 580.02 155.431 591.266 155.431Z" fill="#9E616A"/>
<path d="M615.802 130.462C615.177 125.996 612.149 121.756 607.843 120.403C606.132 115.442 601.601 111.789 596.595 110.196C591.96 108.72 586.964 108.822 582.393 110.488C577.822 112.153 573.933 115.287 571.337 119.398C570.954 119.999 569.776 121.478 569.809 122.196C569.851 123.107 571.248 124.049 571.949 124.624C573.688 125.966 575.563 127.122 577.544 128.073C584.867 131.865 582.429 137.825 582.33 144.578C582.282 147.859 583.379 150.662 586.18 152.536C590.223 155.241 596.01 154.165 600.409 153.079C605.401 151.847 609.551 147.467 612.398 143.244C614.919 139.503 616.428 134.928 615.802 130.462Z" fill="#2F2E41"/>
<path d="M615.599 201.334L632.867 286.788L607.41 288.18L615.599 201.334Z" fill="#3F3D56"/>
<path d="M633.428 472.954C633.428 473.101 633.4 473.246 633.344 473.382C633.289 473.517 633.207 473.641 633.104 473.745C633 473.849 632.877 473.932 632.742 473.989C632.607 474.045 632.461 474.075 632.315 474.075H500.137C499.841 474.075 499.557 473.958 499.347 473.748C499.137 473.539 499.02 473.255 499.02 472.959C499.02 472.663 499.137 472.379 499.347 472.169C499.557 471.96 499.841 471.842 500.137 471.842H632.315C632.61 471.843 632.892 471.96 633.101 472.169C633.31 472.377 633.427 472.659 633.428 472.954V472.954Z" fill="#CACACA"/>
<path fill-rule="evenodd" clip-rule="evenodd" d="M198.349 156.545C192.04 156.545 186.926 161.659 186.926 167.968V198.413C186.926 204.722 192.04 209.837 198.349 209.837H436L450.221 234.415L464.442 209.837H467.017C473.326 209.837 478.441 204.722 478.441 198.413V167.968C478.441 161.659 473.326 156.545 467.017 156.545H198.349Z" fill="#07C9C9"/>
<path d="M210.711 175.225V190.647H207.82V175.225H210.711ZM210.3 184.834H209.507C209.513 184.077 209.614 183.381 209.808 182.745C210.002 182.103 210.28 181.547 210.641 181.079C211.003 180.603 211.434 180.235 211.936 179.974C212.445 179.713 213.007 179.583 213.623 179.583C214.159 179.583 214.644 179.66 215.079 179.814C215.521 179.961 215.899 180.202 216.213 180.537C216.535 180.864 216.782 181.296 216.956 181.832C217.13 182.367 217.217 183.016 217.217 183.779V190.647H214.306V183.759C214.306 183.277 214.236 182.899 214.095 182.625C213.961 182.344 213.764 182.146 213.503 182.033C213.248 181.912 212.934 181.852 212.559 181.852C212.144 181.852 211.789 181.929 211.495 182.083C211.207 182.237 210.976 182.451 210.802 182.725C210.628 182.993 210.501 183.308 210.42 183.669C210.34 184.03 210.3 184.419 210.3 184.834ZM224.738 179.784V181.832H218.412V179.784H224.738ZM219.978 177.103H222.87V187.374C222.87 187.688 222.91 187.929 222.991 188.097C223.078 188.264 223.205 188.381 223.372 188.448C223.539 188.508 223.75 188.539 224.005 188.539C224.185 188.539 224.346 188.532 224.487 188.518C224.634 188.498 224.758 188.478 224.858 188.458L224.868 190.587C224.62 190.667 224.353 190.731 224.065 190.777C223.777 190.824 223.459 190.848 223.111 190.848C222.475 190.848 221.92 190.744 221.444 190.537C220.976 190.322 220.614 189.981 220.36 189.512C220.106 189.044 219.978 188.428 219.978 187.665V177.103ZM231.705 179.784V181.832H225.38V179.784H231.705ZM226.946 177.103H229.838V187.374C229.838 187.688 229.878 187.929 229.958 188.097C230.045 188.264 230.173 188.381 230.34 188.448C230.507 188.508 230.718 188.539 230.972 188.539C231.153 188.539 231.314 188.532 231.454 188.518C231.602 188.498 231.726 188.478 231.826 188.458L231.836 190.587C231.588 190.667 231.321 190.731 231.033 190.777C230.745 190.824 230.427 190.848 230.079 190.848C229.443 190.848 228.887 190.744 228.412 190.537C227.944 190.322 227.582 189.981 227.328 189.512C227.074 189.044 226.946 188.428 226.946 187.665V177.103ZM236.244 181.872V194.824H233.352V179.784H236.033L236.244 181.872ZM243.121 185.095V185.306C243.121 186.095 243.027 186.828 242.84 187.504C242.659 188.18 242.392 188.769 242.037 189.271C241.682 189.767 241.24 190.155 240.711 190.436C240.189 190.711 239.587 190.848 238.904 190.848C238.242 190.848 237.666 190.714 237.177 190.446C236.689 190.178 236.277 189.804 235.942 189.322C235.614 188.833 235.35 188.267 235.149 187.625C234.948 186.982 234.794 186.293 234.687 185.557V185.004C234.794 184.215 234.948 183.492 235.149 182.836C235.35 182.173 235.614 181.601 235.942 181.119C236.277 180.63 236.685 180.252 237.167 179.984C237.656 179.717 238.228 179.583 238.884 179.583C239.574 179.583 240.179 179.713 240.701 179.974C241.23 180.235 241.672 180.61 242.027 181.099C242.388 181.587 242.659 182.17 242.84 182.846C243.027 183.522 243.121 184.271 243.121 185.095ZM240.219 185.306V185.095C240.219 184.633 240.179 184.208 240.099 183.82C240.025 183.425 239.905 183.08 239.738 182.786C239.577 182.491 239.363 182.263 239.095 182.103C238.834 181.935 238.516 181.852 238.141 181.852C237.746 181.852 237.408 181.915 237.127 182.043C236.853 182.17 236.628 182.354 236.454 182.595C236.28 182.836 236.15 183.124 236.063 183.458C235.976 183.793 235.922 184.171 235.902 184.593V185.988C235.936 186.484 236.029 186.929 236.183 187.324C236.337 187.712 236.575 188.02 236.896 188.247C237.217 188.475 237.639 188.589 238.161 188.589C238.543 188.589 238.864 188.505 239.125 188.338C239.386 188.164 239.597 187.926 239.758 187.625C239.925 187.324 240.042 186.976 240.109 186.581C240.183 186.186 240.219 185.761 240.219 185.306ZM250.792 187.645C250.792 187.437 250.732 187.25 250.611 187.083C250.491 186.915 250.266 186.761 249.938 186.621C249.617 186.474 249.152 186.34 248.543 186.219C247.994 186.099 247.482 185.948 247.007 185.767C246.538 185.58 246.13 185.356 245.782 185.095C245.44 184.834 245.173 184.526 244.979 184.171C244.784 183.81 244.687 183.398 244.687 182.936C244.687 182.481 244.784 182.053 244.979 181.651C245.179 181.249 245.464 180.895 245.832 180.587C246.207 180.272 246.662 180.028 247.197 179.854C247.74 179.673 248.349 179.583 249.025 179.583C249.969 179.583 250.778 179.733 251.454 180.035C252.137 180.336 252.659 180.751 253.021 181.279C253.389 181.802 253.573 182.397 253.573 183.067H250.681C250.681 182.786 250.621 182.535 250.501 182.314C250.387 182.086 250.206 181.909 249.958 181.781C249.717 181.648 249.403 181.581 249.015 181.581C248.693 181.581 248.416 181.638 248.181 181.751C247.947 181.858 247.766 182.006 247.639 182.193C247.519 182.374 247.458 182.575 247.458 182.796C247.458 182.963 247.492 183.113 247.559 183.247C247.632 183.375 247.75 183.492 247.91 183.599C248.071 183.706 248.278 183.806 248.533 183.9C248.794 183.987 249.115 184.067 249.497 184.141C250.28 184.302 250.979 184.512 251.595 184.773C252.211 185.028 252.699 185.376 253.061 185.818C253.422 186.253 253.603 186.825 253.603 187.535C253.603 188.016 253.496 188.458 253.282 188.86C253.068 189.261 252.76 189.613 252.358 189.914C251.956 190.209 251.475 190.439 250.912 190.607C250.357 190.767 249.731 190.848 249.035 190.848C248.024 190.848 247.167 190.667 246.464 190.306C245.768 189.944 245.24 189.486 244.878 188.93C244.523 188.368 244.346 187.792 244.346 187.203H247.087C247.1 187.598 247.201 187.916 247.388 188.157C247.582 188.398 247.827 188.572 248.121 188.679C248.422 188.786 248.747 188.84 249.095 188.84C249.47 188.84 249.781 188.79 250.029 188.689C250.276 188.582 250.464 188.441 250.591 188.267C250.725 188.087 250.792 187.879 250.792 187.645ZM255.591 189.251C255.591 188.823 255.738 188.465 256.033 188.177C256.334 187.889 256.732 187.745 257.228 187.745C257.723 187.745 258.118 187.889 258.412 188.177C258.713 188.465 258.864 188.823 258.864 189.251C258.864 189.68 258.713 190.038 258.412 190.326C258.118 190.614 257.723 190.757 257.228 190.757C256.732 190.757 256.334 190.614 256.033 190.326C255.738 190.038 255.591 189.68 255.591 189.251ZM255.591 180.968C255.591 180.54 255.738 180.182 256.033 179.894C256.334 179.606 256.732 179.462 257.228 179.462C257.723 179.462 258.118 179.606 258.412 179.894C258.713 180.182 258.864 180.54 258.864 180.968C258.864 181.397 258.713 181.755 258.412 182.043C258.118 182.33 257.723 182.474 257.228 182.474C256.732 182.474 256.334 182.33 256.033 182.043C255.738 181.755 255.591 181.397 255.591 180.968ZM267.529 176.028L262.167 191.902H260.019L265.38 176.028H267.529ZM272.75 176.028L267.388 191.902H265.24L270.601 176.028H272.75ZM277.027 182.033V190.647H274.125V179.784H276.846L277.027 182.033ZM276.625 184.834H275.822C275.822 184.077 275.912 183.381 276.093 182.745C276.28 182.103 276.552 181.547 276.906 181.079C277.268 180.603 277.713 180.235 278.242 179.974C278.77 179.713 279.383 179.583 280.079 179.583C280.561 179.583 281.003 179.656 281.404 179.804C281.806 179.944 282.151 180.168 282.438 180.476C282.733 180.777 282.961 181.172 283.121 181.661C283.282 182.143 283.362 182.722 283.362 183.398V190.647H280.471V183.719C280.471 183.224 280.404 182.842 280.27 182.575C280.136 182.307 279.945 182.12 279.697 182.012C279.456 181.905 279.165 181.852 278.824 181.852C278.449 181.852 278.121 181.929 277.84 182.083C277.566 182.237 277.338 182.451 277.157 182.725C276.977 182.993 276.843 183.308 276.756 183.669C276.669 184.03 276.625 184.419 276.625 184.834ZM283.091 184.502L282.057 184.633C282.057 183.923 282.144 183.264 282.318 182.655C282.499 182.046 282.763 181.51 283.111 181.049C283.466 180.587 283.904 180.229 284.426 179.974C284.948 179.713 285.551 179.583 286.234 179.583C286.756 179.583 287.231 179.66 287.659 179.814C288.088 179.961 288.452 180.198 288.754 180.526C289.062 180.848 289.296 181.269 289.457 181.792C289.624 182.314 289.708 182.953 289.708 183.709V190.647H286.806V183.709C286.806 183.207 286.739 182.826 286.605 182.565C286.478 182.297 286.291 182.113 286.043 182.012C285.802 181.905 285.514 181.852 285.179 181.852C284.831 181.852 284.527 181.922 284.266 182.063C284.005 182.196 283.787 182.384 283.613 182.625C283.439 182.866 283.309 183.147 283.222 183.468C283.135 183.783 283.091 184.128 283.091 184.502ZM296.946 190.848C296.103 190.848 295.347 190.714 294.677 190.446C294.008 190.172 293.439 189.794 292.971 189.312C292.509 188.83 292.154 188.271 291.906 187.635C291.659 186.992 291.535 186.31 291.535 185.587V185.185C291.535 184.362 291.652 183.609 291.886 182.926C292.121 182.243 292.455 181.651 292.89 181.149C293.332 180.647 293.867 180.262 294.497 179.994C295.126 179.72 295.835 179.583 296.625 179.583C297.395 179.583 298.078 179.71 298.673 179.964C299.269 180.219 299.768 180.58 300.169 181.049C300.578 181.517 300.886 182.079 301.093 182.735C301.301 183.385 301.404 184.107 301.404 184.904V186.109H292.77V184.181H298.563V183.96C298.563 183.559 298.489 183.201 298.342 182.886C298.202 182.565 297.987 182.31 297.699 182.123C297.412 181.935 297.044 181.842 296.595 181.842C296.214 181.842 295.886 181.925 295.611 182.093C295.337 182.26 295.112 182.494 294.938 182.796C294.771 183.097 294.644 183.452 294.557 183.86C294.477 184.261 294.436 184.703 294.436 185.185V185.587C294.436 186.022 294.497 186.423 294.617 186.792C294.744 187.16 294.922 187.478 295.149 187.745C295.384 188.013 295.665 188.221 295.993 188.368C296.327 188.515 296.706 188.589 297.127 188.589C297.649 188.589 298.135 188.488 298.583 188.288C299.038 188.08 299.43 187.769 299.758 187.354L301.163 188.88C300.936 189.208 300.625 189.522 300.23 189.824C299.841 190.125 299.373 190.373 298.824 190.567C298.275 190.754 297.649 190.848 296.946 190.848ZM305.882 182.103V190.647H302.991V179.784H305.702L305.882 182.103ZM305.461 184.834H304.677C304.677 184.03 304.781 183.308 304.989 182.665C305.196 182.016 305.487 181.464 305.862 181.008C306.237 180.547 306.682 180.195 307.197 179.954C307.72 179.707 308.302 179.583 308.944 179.583C309.453 179.583 309.918 179.656 310.34 179.804C310.762 179.951 311.123 180.185 311.424 180.506C311.732 180.828 311.967 181.253 312.127 181.781C312.295 182.31 312.378 182.956 312.378 183.719V190.647H309.467V183.709C309.467 183.227 309.4 182.852 309.266 182.585C309.132 182.317 308.934 182.13 308.673 182.022C308.419 181.909 308.104 181.852 307.73 181.852C307.341 181.852 307.003 181.929 306.716 182.083C306.434 182.237 306.2 182.451 306.013 182.725C305.832 182.993 305.695 183.308 305.601 183.669C305.507 184.03 305.461 184.419 305.461 184.834ZM319.898 179.784V181.832H313.573V179.784H319.898ZM315.139 177.103H318.031V187.374C318.031 187.688 318.071 187.929 318.151 188.097C318.238 188.264 318.366 188.381 318.533 188.448C318.7 188.508 318.911 188.539 319.165 188.539C319.346 188.539 319.507 188.532 319.647 188.518C319.795 188.498 319.918 188.478 320.019 188.458L320.029 190.587C319.781 190.667 319.513 190.731 319.226 190.777C318.938 190.824 318.62 190.848 318.272 190.848C317.636 190.848 317.08 190.744 316.605 190.537C316.137 190.322 315.775 189.981 315.521 189.512C315.266 189.044 315.139 188.428 315.139 187.665V177.103ZM320.822 185.326V185.115C320.822 184.318 320.936 183.585 321.163 182.916C321.391 182.24 321.722 181.654 322.157 181.159C322.592 180.664 323.128 180.279 323.764 180.004C324.4 179.723 325.129 179.583 325.953 179.583C326.776 179.583 327.509 179.723 328.151 180.004C328.794 180.279 329.333 180.664 329.768 181.159C330.21 181.654 330.544 182.24 330.772 182.916C330.999 183.585 331.113 184.318 331.113 185.115V185.326C331.113 186.116 330.999 186.848 330.772 187.524C330.544 188.194 330.21 188.78 329.768 189.282C329.333 189.777 328.797 190.162 328.161 190.436C327.526 190.711 326.796 190.848 325.973 190.848C325.149 190.848 324.416 190.711 323.774 190.436C323.138 190.162 322.599 189.777 322.157 189.282C321.722 188.78 321.391 188.194 321.163 187.524C320.936 186.848 320.822 186.116 320.822 185.326ZM323.714 185.115V185.326C323.714 185.781 323.754 186.206 323.834 186.601C323.914 186.996 324.042 187.344 324.216 187.645C324.396 187.939 324.631 188.17 324.918 188.338C325.206 188.505 325.558 188.589 325.973 188.589C326.374 188.589 326.719 188.505 327.007 188.338C327.295 188.17 327.526 187.939 327.7 187.645C327.874 187.344 328.001 186.996 328.081 186.601C328.168 186.206 328.212 185.781 328.212 185.326V185.115C328.212 184.673 328.168 184.258 328.081 183.87C328.001 183.475 327.87 183.127 327.689 182.826C327.515 182.518 327.285 182.277 326.997 182.103C326.709 181.929 326.361 181.842 325.953 181.842C325.544 181.842 325.196 181.929 324.908 182.103C324.627 182.277 324.396 182.518 324.216 182.826C324.042 183.127 323.914 183.475 323.834 183.87C323.754 184.258 323.714 184.673 323.714 185.115ZM335.782 182.153V190.647H332.89V179.784H335.611L335.782 182.153ZM339.055 179.713L339.005 182.394C338.864 182.374 338.694 182.357 338.493 182.344C338.299 182.324 338.121 182.314 337.961 182.314C337.552 182.314 337.198 182.367 336.896 182.474C336.602 182.575 336.354 182.725 336.153 182.926C335.959 183.127 335.812 183.371 335.712 183.659C335.618 183.947 335.564 184.275 335.551 184.643L334.969 184.462C334.969 183.759 335.039 183.113 335.179 182.524C335.32 181.929 335.524 181.41 335.792 180.968C336.066 180.526 336.401 180.185 336.796 179.944C337.191 179.703 337.643 179.583 338.151 179.583C338.312 179.583 338.476 179.596 338.643 179.623C338.811 179.643 338.948 179.673 339.055 179.713ZM338.975 189.251C338.975 188.823 339.122 188.465 339.416 188.177C339.718 187.889 340.116 187.745 340.611 187.745C341.107 187.745 341.501 187.889 341.796 188.177C342.097 188.465 342.248 188.823 342.248 189.251C342.248 189.68 342.097 190.038 341.796 190.326C341.501 190.614 341.107 190.757 340.611 190.757C340.116 190.757 339.718 190.614 339.416 190.326C339.122 190.038 338.975 189.68 338.975 189.251ZM349.286 188.589C349.641 188.589 349.955 188.522 350.23 188.388C350.504 188.247 350.718 188.053 350.872 187.806C351.033 187.551 351.117 187.253 351.123 186.912H353.844C353.837 187.675 353.633 188.354 353.232 188.95C352.83 189.539 352.291 190.004 351.615 190.346C350.939 190.68 350.183 190.848 349.346 190.848C348.503 190.848 347.767 190.707 347.137 190.426C346.515 190.145 345.996 189.757 345.581 189.261C345.166 188.759 344.855 188.177 344.647 187.514C344.44 186.845 344.336 186.129 344.336 185.366V185.075C344.336 184.305 344.44 183.589 344.647 182.926C344.855 182.257 345.166 181.674 345.581 181.179C345.996 180.677 346.515 180.286 347.137 180.004C347.76 179.723 348.489 179.583 349.326 179.583C350.216 179.583 350.996 179.753 351.665 180.095C352.341 180.436 352.87 180.925 353.252 181.561C353.64 182.19 353.837 182.936 353.844 183.8H351.123C351.117 183.438 351.04 183.11 350.892 182.816C350.752 182.521 350.544 182.287 350.27 182.113C350.002 181.932 349.671 181.842 349.276 181.842C348.854 181.842 348.509 181.932 348.242 182.113C347.974 182.287 347.767 182.528 347.619 182.836C347.472 183.137 347.368 183.482 347.308 183.87C347.254 184.251 347.228 184.653 347.228 185.075V185.366C347.228 185.788 347.254 186.192 347.308 186.581C347.362 186.969 347.462 187.314 347.609 187.615C347.763 187.916 347.974 188.154 348.242 188.328C348.509 188.502 348.858 188.589 349.286 188.589ZM355.059 185.326V185.115C355.059 184.318 355.173 183.585 355.4 182.916C355.628 182.24 355.959 181.654 356.394 181.159C356.829 180.664 357.365 180.279 358.001 180.004C358.637 179.723 359.366 179.583 360.19 179.583C361.013 179.583 361.746 179.723 362.388 180.004C363.031 180.279 363.57 180.664 364.005 181.159C364.447 181.654 364.781 182.24 365.009 182.916C365.236 183.585 365.35 184.318 365.35 185.115V185.326C365.35 186.116 365.236 186.848 365.009 187.524C364.781 188.194 364.447 188.78 364.005 189.282C363.57 189.777 363.034 190.162 362.398 190.436C361.763 190.711 361.033 190.848 360.21 190.848C359.386 190.848 358.653 190.711 358.011 190.436C357.375 190.162 356.836 189.777 356.394 189.282C355.959 188.78 355.628 188.194 355.4 187.524C355.173 186.848 355.059 186.116 355.059 185.326ZM357.951 185.115V185.326C357.951 185.781 357.991 186.206 358.071 186.601C358.151 186.996 358.279 187.344 358.453 187.645C358.633 187.939 358.868 188.17 359.155 188.338C359.443 188.505 359.795 188.589 360.21 188.589C360.611 188.589 360.956 188.505 361.244 188.338C361.532 188.17 361.763 187.939 361.937 187.645C362.111 187.344 362.238 186.996 362.318 186.601C362.405 186.206 362.449 185.781 362.449 185.326V185.115C362.449 184.673 362.405 184.258 362.318 183.87C362.238 183.475 362.107 183.127 361.926 182.826C361.752 182.518 361.522 182.277 361.234 182.103C360.946 181.929 360.598 181.842 360.19 181.842C359.781 181.842 359.433 181.929 359.145 182.103C358.864 182.277 358.633 182.518 358.453 182.826C358.279 183.127 358.151 183.475 358.071 183.87C357.991 184.258 357.951 184.673 357.951 185.115ZM370.019 182.033V190.647H367.117V179.784H369.838L370.019 182.033ZM369.617 184.834H368.814C368.814 184.077 368.904 183.381 369.085 182.745C369.273 182.103 369.544 181.547 369.898 181.079C370.26 180.603 370.705 180.235 371.234 179.974C371.763 179.713 372.375 179.583 373.071 179.583C373.553 179.583 373.995 179.656 374.396 179.804C374.798 179.944 375.143 180.168 375.431 180.476C375.725 180.777 375.953 181.172 376.113 181.661C376.274 182.143 376.354 182.722 376.354 183.398V190.647H373.463V183.719C373.463 183.224 373.396 182.842 373.262 182.575C373.128 182.307 372.937 182.12 372.69 182.012C372.449 181.905 372.157 181.852 371.816 181.852C371.441 181.852 371.113 181.929 370.832 182.083C370.558 182.237 370.33 182.451 370.149 182.725C369.969 182.993 369.835 183.308 369.748 183.669C369.661 184.03 369.617 184.419 369.617 184.834ZM376.083 184.502L375.049 184.633C375.049 183.923 375.136 183.264 375.31 182.655C375.491 182.046 375.755 181.51 376.103 181.049C376.458 180.587 376.896 180.229 377.418 179.974C377.941 179.713 378.543 179.583 379.226 179.583C379.748 179.583 380.223 179.66 380.651 179.814C381.08 179.961 381.445 180.198 381.746 180.526C382.054 180.848 382.288 181.269 382.449 181.792C382.616 182.314 382.7 182.953 382.7 183.709V190.647H379.798V183.709C379.798 183.207 379.731 182.826 379.597 182.565C379.47 182.297 379.283 182.113 379.035 182.012C378.794 181.905 378.506 181.852 378.171 181.852C377.823 181.852 377.519 181.922 377.258 182.063C376.997 182.196 376.779 182.384 376.605 182.625C376.431 182.866 376.301 183.147 376.214 183.468C376.127 183.783 376.083 184.128 376.083 184.502ZM391.184 176.028L385.822 191.902H383.674L389.035 176.028H391.184ZM398.443 187.645C398.443 187.437 398.382 187.25 398.262 187.083C398.141 186.915 397.917 186.761 397.589 186.621C397.268 186.474 396.803 186.34 396.194 186.219C395.645 186.099 395.133 185.948 394.657 185.767C394.189 185.58 393.781 185.356 393.433 185.095C393.091 184.834 392.823 184.526 392.629 184.171C392.435 183.81 392.338 183.398 392.338 182.936C392.338 182.481 392.435 182.053 392.629 181.651C392.83 181.249 393.115 180.895 393.483 180.587C393.858 180.272 394.313 180.028 394.848 179.854C395.39 179.673 396 179.583 396.676 179.583C397.619 179.583 398.429 179.733 399.105 180.035C399.788 180.336 400.31 180.751 400.672 181.279C401.04 181.802 401.224 182.397 401.224 183.067H398.332C398.332 182.786 398.272 182.535 398.151 182.314C398.038 182.086 397.857 181.909 397.609 181.781C397.368 181.648 397.054 181.581 396.666 181.581C396.344 181.581 396.066 181.638 395.832 181.751C395.598 181.858 395.417 182.006 395.29 182.193C395.17 182.374 395.109 182.575 395.109 182.796C395.109 182.963 395.143 183.113 395.21 183.247C395.283 183.375 395.4 183.492 395.561 183.599C395.722 183.706 395.929 183.806 396.184 183.9C396.445 183.987 396.766 184.067 397.147 184.141C397.931 184.302 398.63 184.512 399.246 184.773C399.862 185.028 400.35 185.376 400.712 185.818C401.073 186.253 401.254 186.825 401.254 187.535C401.254 188.016 401.147 188.458 400.933 188.86C400.718 189.261 400.41 189.613 400.009 189.914C399.607 190.209 399.125 190.439 398.563 190.607C398.008 190.767 397.382 190.848 396.686 190.848C395.675 190.848 394.818 190.667 394.115 190.306C393.419 189.944 392.89 189.486 392.529 188.93C392.174 188.368 391.997 187.792 391.997 187.203H394.738C394.751 187.598 394.852 187.916 395.039 188.157C395.233 188.398 395.477 188.572 395.772 188.679C396.073 188.786 396.398 188.84 396.746 188.84C397.121 188.84 397.432 188.79 397.68 188.689C397.927 188.582 398.115 188.441 398.242 188.267C398.376 188.087 398.443 187.879 398.443 187.645ZM408.131 190.848C407.288 190.848 406.532 190.714 405.862 190.446C405.193 190.172 404.624 189.794 404.155 189.312C403.694 188.83 403.339 188.271 403.091 187.635C402.844 186.992 402.72 186.31 402.72 185.587V185.185C402.72 184.362 402.837 183.609 403.071 182.926C403.305 182.243 403.64 181.651 404.075 181.149C404.517 180.647 405.052 180.262 405.682 179.994C406.311 179.72 407.02 179.583 407.81 179.583C408.58 179.583 409.263 179.71 409.858 179.964C410.454 180.219 410.953 180.58 411.354 181.049C411.763 181.517 412.07 182.079 412.278 182.735C412.485 183.385 412.589 184.107 412.589 184.904V186.109H403.955V184.181H409.748V183.96C409.748 183.559 409.674 183.201 409.527 182.886C409.386 182.565 409.172 182.31 408.884 182.123C408.597 181.935 408.228 181.842 407.78 181.842C407.398 181.842 407.07 181.925 406.796 182.093C406.522 182.26 406.297 182.494 406.123 182.796C405.956 183.097 405.829 183.452 405.742 183.86C405.662 184.261 405.621 184.703 405.621 185.185V185.587C405.621 186.022 405.682 186.423 405.802 186.792C405.929 187.16 406.107 187.478 406.334 187.745C406.568 188.013 406.85 188.221 407.178 188.368C407.512 188.515 407.89 188.589 408.312 188.589C408.834 188.589 409.319 188.488 409.768 188.288C410.223 188.08 410.615 187.769 410.943 187.354L412.348 188.88C412.121 189.208 411.809 189.522 411.415 189.824C411.026 190.125 410.558 190.373 410.009 190.567C409.46 190.754 408.834 190.848 408.131 190.848ZM420.662 188.047V179.784H423.553V190.647H420.832L420.662 188.047ZM420.983 185.818L421.836 185.798C421.836 186.52 421.753 187.193 421.585 187.816C421.418 188.431 421.167 188.967 420.832 189.422C420.498 189.871 420.076 190.222 419.567 190.476C419.058 190.724 418.459 190.848 417.77 190.848C417.241 190.848 416.753 190.774 416.304 190.627C415.862 190.473 415.481 190.235 415.16 189.914C414.845 189.586 414.597 189.168 414.417 188.659C414.243 188.144 414.155 187.524 414.155 186.802V179.784H417.047V186.822C417.047 187.143 417.084 187.414 417.158 187.635C417.238 187.856 417.348 188.037 417.489 188.177C417.629 188.318 417.793 188.418 417.981 188.478C418.175 188.539 418.389 188.569 418.623 188.569C419.219 188.569 419.688 188.448 420.029 188.207C420.377 187.966 420.621 187.638 420.762 187.223C420.909 186.802 420.983 186.333 420.983 185.818ZM428.814 175.225V190.647H425.913V175.225H428.814ZM434.256 179.784V190.647H431.354V179.784H434.256ZM431.174 176.952C431.174 176.53 431.321 176.182 431.615 175.908C431.91 175.634 432.305 175.496 432.8 175.496C433.289 175.496 433.68 175.634 433.975 175.908C434.276 176.182 434.427 176.53 434.427 176.952C434.427 177.374 434.276 177.722 433.975 177.996C433.68 178.271 433.289 178.408 432.8 178.408C432.305 178.408 431.91 178.271 431.615 177.996C431.321 177.722 431.174 177.374 431.174 176.952ZM439.477 182.103V190.647H436.585V179.784H439.296L439.477 182.103ZM439.055 184.834H438.272C438.272 184.03 438.376 183.308 438.583 182.665C438.791 182.016 439.082 181.464 439.457 181.008C439.832 180.547 440.277 180.195 440.792 179.954C441.314 179.707 441.896 179.583 442.539 179.583C443.048 179.583 443.513 179.656 443.935 179.804C444.356 179.951 444.718 180.185 445.019 180.506C445.327 180.828 445.561 181.253 445.722 181.781C445.889 182.31 445.973 182.956 445.973 183.719V190.647H443.061V183.709C443.061 183.227 442.994 182.852 442.86 182.585C442.726 182.317 442.529 182.13 442.268 182.022C442.014 181.909 441.699 181.852 441.324 181.852C440.936 181.852 440.598 181.929 440.31 182.083C440.029 182.237 439.795 182.451 439.607 182.725C439.427 182.993 439.289 183.308 439.196 183.669C439.102 184.03 439.055 184.419 439.055 184.834ZM451.063 175.215V190.647H448.172V175.215H451.063ZM457.911 179.784L453.192 185.165L450.662 187.725L449.607 185.637L451.615 183.087L454.437 179.784H457.911ZM454.909 190.647L451.696 185.627L453.694 183.88L458.242 190.647H454.909Z" fill="black"/>
</g>
<defs>
<clipPath id="clip0_313_2038">
<rect width="642" height="474.075" fill="white"/>
</clipPath>
</defs>
</svg>
