<svg width="284" height="69" viewBox="0 0 284 69" fill="none" xmlns="http://www.w3.org/2000/svg">
<path d="M31.7796 49.7095V55.5298H12.503V49.7095H31.7796ZM14.9405 19.3146V55.5298H7.47862V19.3146H14.9405ZM29.2674 34.0643V39.7354H12.503V34.0643H29.2674ZM31.7547 19.3146V25.1598H12.503V19.3146H31.7547ZM45.5006 34.3628V55.5298H38.3371V28.6171H45.0529L45.5006 34.3628ZM44.4559 41.1283H42.5158C42.5158 39.1384 42.7728 37.3476 43.2869 35.7557C43.8009 34.1472 44.5222 32.7792 45.4508 31.6516C46.3794 30.5075 47.4821 29.6369 48.7589 29.04C50.0523 28.4264 51.495 28.1197 53.0869 28.1197C54.3471 28.1197 55.4995 28.3021 56.5442 28.6669C57.5889 29.0317 58.4843 29.6121 59.2305 30.408C59.9933 31.2039 60.5737 32.2569 60.9716 33.5669C61.3862 34.8769 61.5935 36.477 61.5935 38.3674V55.5298H54.3803V38.3425C54.3803 37.1486 54.2144 36.22 53.8828 35.5567C53.5512 34.8934 53.062 34.4291 52.4153 34.1638C51.7852 33.8819 51.0058 33.741 50.0772 33.741C49.1155 33.741 48.2781 33.9317 47.565 34.3131C46.8686 34.6944 46.2882 35.2251 45.8239 35.9049C45.3762 36.5682 45.0363 37.3476 44.8041 38.243C44.572 39.1384 44.4559 40.1002 44.4559 41.1283ZM80.9606 50.4308C81.8395 50.4308 82.6188 50.265 83.2987 49.9333C83.9785 49.5851 84.5092 49.1042 84.8906 48.4907C85.2885 47.8606 85.4958 47.1227 85.5124 46.277H92.253C92.2364 48.1674 91.7307 49.8504 90.7357 51.3262C89.7408 52.7855 88.406 53.9379 86.7312 54.7836C85.0564 55.6127 83.1826 56.0272 81.1099 56.0272C79.0205 56.0272 77.1965 55.679 75.6378 54.9826C74.0956 54.2861 72.8105 53.3244 71.7825 52.0973C70.7544 50.8536 69.9833 49.411 69.4693 47.7694C68.9552 46.1112 68.6982 44.3369 68.6982 42.4466V41.7252C68.6982 39.8183 68.9552 38.044 69.4693 36.4024C69.9833 34.7442 70.7544 33.3016 71.7825 32.0745C72.8105 30.8308 74.0956 29.8608 75.6378 29.1643C77.1799 28.4679 78.9874 28.1197 81.0601 28.1197C83.2655 28.1197 85.1973 28.5425 86.8555 29.3882C88.5303 30.2339 89.8403 31.4444 90.7855 33.0197C91.7472 34.5784 92.2364 36.4273 92.253 38.5664H85.5124C85.4958 37.6709 85.3051 36.8584 84.9403 36.1288C84.5921 35.3992 84.078 34.8188 83.3982 34.3877C82.7349 33.94 81.9141 33.7161 80.9357 33.7161C79.8911 33.7161 79.0371 33.94 78.3738 34.3877C77.7105 34.8188 77.1965 35.4158 76.8317 36.1785C76.4669 36.9247 76.2099 37.7787 76.0606 38.7405C75.928 39.6856 75.8616 40.6806 75.8616 41.7252V42.4466C75.8616 43.4912 75.928 44.4944 76.0606 45.4562C76.1933 46.418 76.442 47.2719 76.8068 48.0181C77.1882 48.7643 77.7105 49.353 78.3738 49.7841C79.0371 50.2152 79.8994 50.4308 80.9606 50.4308ZM115.127 49.0877V28.6171H122.291V55.5298H115.55L115.127 49.0877ZM115.923 43.5658L118.037 43.5161C118.037 45.307 117.83 46.9735 117.416 48.5156C117.001 50.0411 116.379 51.3677 115.55 52.4953C114.721 53.6063 113.676 54.4768 112.416 55.1069C111.156 55.7205 109.672 56.0272 107.964 56.0272C106.654 56.0272 105.443 55.8448 104.332 55.48C103.238 55.0987 102.293 54.51 101.497 53.7141C100.717 52.9015 100.104 51.8652 99.6562 50.6049C99.2251 49.3281 99.0095 47.7943 99.0095 46.0034V28.6171H106.173V46.0531C106.173 46.8491 106.264 47.5207 106.447 48.0679C106.646 48.6151 106.919 49.0628 107.267 49.411C107.616 49.7592 108.022 50.008 108.486 50.1572C108.967 50.3064 109.498 50.3811 110.078 50.3811C111.554 50.3811 112.715 50.0826 113.56 49.4856C114.423 48.8887 115.028 48.0762 115.376 47.0481C115.741 46.0034 115.923 44.8427 115.923 43.5658ZM137.728 34.4872V55.5298H130.564V28.6171H137.305L137.728 34.4872ZM145.837 28.443L145.712 35.0841C145.364 35.0344 144.941 34.9929 144.444 34.9598C143.963 34.91 143.523 34.8851 143.125 34.8851C142.114 34.8851 141.235 35.0178 140.489 35.2831C139.759 35.5318 139.146 35.9049 138.648 36.4024C138.167 36.8999 137.803 37.5051 137.554 38.2181C137.322 38.9312 137.189 39.7437 137.156 40.6557L135.713 40.208C135.713 38.4669 135.887 36.8667 136.236 35.4075C136.584 33.9317 137.09 32.6466 137.753 31.5522C138.433 30.4577 139.262 29.6121 140.24 29.0151C141.218 28.4181 142.338 28.1197 143.598 28.1197C143.996 28.1197 144.402 28.1528 144.817 28.2192C145.231 28.2689 145.571 28.3435 145.837 28.443ZM166.447 28.6171V33.6912H150.777V28.6171H166.447ZM154.658 21.976H161.821V47.4212C161.821 48.2005 161.92 48.7975 162.119 49.212C162.335 49.6266 162.65 49.9168 163.065 50.0826C163.479 50.2318 164.001 50.3064 164.632 50.3064C165.079 50.3064 165.477 50.2899 165.826 50.2567C166.19 50.2069 166.497 50.1572 166.746 50.1075L166.771 55.3805C166.157 55.5795 165.494 55.7371 164.781 55.8531C164.068 55.9692 163.28 56.0272 162.418 56.0272C160.843 56.0272 159.466 55.7702 158.289 55.2562C157.128 54.7256 156.233 53.8799 155.603 52.7191C154.973 51.5584 154.658 50.0328 154.658 48.1425V21.976ZM187.854 49.4608V37.4719C187.854 36.6097 187.713 35.8718 187.431 35.2582C187.149 34.6281 186.71 34.1389 186.113 33.7907C185.533 33.4425 184.778 33.2684 183.85 33.2684C183.054 33.2684 182.365 33.4093 181.785 33.6912C181.205 33.9565 180.757 34.3462 180.442 34.8603C180.127 35.3577 179.969 35.9464 179.969 36.6263H172.806C172.806 35.4821 173.071 34.396 173.602 33.3679C174.132 32.3398 174.904 31.4361 175.915 30.6567C176.927 29.8608 178.129 29.239 179.522 28.7912C180.931 28.3435 182.506 28.1197 184.248 28.1197C186.337 28.1197 188.194 28.4679 189.819 29.1643C191.444 29.8608 192.721 30.9055 193.65 32.2983C194.595 33.6912 195.067 35.4323 195.067 37.5217V49.0379C195.067 50.5137 195.158 51.7242 195.341 52.6694C195.523 53.598 195.789 54.4105 196.137 55.1069V55.5298H188.899C188.551 54.8002 188.285 53.8882 188.103 52.7937C187.937 51.6828 187.854 50.5718 187.854 49.4608ZM188.799 39.1384L188.849 43.1927H184.844C183.899 43.1927 183.078 43.3005 182.382 43.5161C181.686 43.7317 181.114 44.0384 180.666 44.4364C180.218 44.8178 179.886 45.2655 179.671 45.7795C179.472 46.2936 179.372 46.8574 179.372 47.4709C179.372 48.0844 179.513 48.6399 179.795 49.1374C180.077 49.6183 180.483 49.9997 181.014 50.2816C181.545 50.5469 182.166 50.6795 182.879 50.6795C183.957 50.6795 184.894 50.464 185.69 50.0328C186.486 49.6017 187.1 49.0711 187.531 48.441C187.978 47.8108 188.211 47.2139 188.227 46.6501L190.118 49.6846C189.852 50.3645 189.487 51.0692 189.023 51.7988C188.575 52.5284 188.003 53.2166 187.307 53.8633C186.61 54.4934 185.773 55.0157 184.795 55.4303C183.816 55.8283 182.656 56.0272 181.312 56.0272C179.605 56.0272 178.054 55.6873 176.661 55.0075C175.285 54.311 174.19 53.3575 173.378 52.147C172.582 50.92 172.184 49.5271 172.184 47.9684C172.184 46.5589 172.449 45.307 172.98 44.2125C173.511 43.1181 174.29 42.1978 175.318 41.4516C176.363 40.6889 177.664 40.1168 179.223 39.7354C180.782 39.3374 182.589 39.1384 184.645 39.1384H188.799ZM219.285 49.6597V17.3248H226.498V55.5298H220.006L219.285 49.6597ZM202.272 42.3968V41.8745C202.272 39.8183 202.504 37.9528 202.968 36.278C203.432 34.5867 204.112 33.1357 205.008 31.9252C205.903 30.7148 207.006 29.7779 208.316 29.1146C209.626 28.4513 211.118 28.1197 212.793 28.1197C214.368 28.1197 215.744 28.4513 216.922 29.1146C218.116 29.7779 219.127 30.723 219.956 31.9501C220.802 33.1606 221.482 34.595 221.996 36.2532C222.51 37.8948 222.883 39.6939 223.115 41.6506V42.7948C222.883 44.6685 222.51 46.4097 221.996 48.0181C221.482 49.6266 220.802 51.0361 219.956 52.2465C219.127 53.4404 218.116 54.369 216.922 55.0323C215.728 55.6956 214.335 56.0272 212.743 56.0272C211.068 56.0272 209.576 55.6873 208.266 55.0075C206.973 54.3276 205.878 53.3741 204.983 52.147C204.104 50.92 203.432 49.4773 202.968 47.8191C202.504 46.1609 202.272 44.3535 202.272 42.3968ZM209.435 41.8745V42.3968C209.435 43.5078 209.518 44.5442 209.684 45.5059C209.866 46.4677 210.156 47.3217 210.554 48.0679C210.969 48.7975 211.499 49.3696 212.146 49.7841C212.809 50.1821 213.614 50.3811 214.559 50.3811C215.786 50.3811 216.797 50.1075 217.593 49.5602C218.389 48.9965 218.995 48.2254 219.409 47.2471C219.84 46.2687 220.089 45.1411 220.155 43.8643V40.6059C220.106 39.5613 219.956 38.6244 219.708 37.7953C219.475 36.9496 219.127 36.2283 218.663 35.6313C218.215 35.0344 217.651 34.5701 216.972 34.2384C216.308 33.9068 215.521 33.741 214.609 33.741C213.68 33.741 212.884 33.9565 212.221 34.3877C211.557 34.8022 211.019 35.3743 210.604 36.1039C210.206 36.8335 209.908 37.6958 209.709 38.6907C209.526 39.6691 209.435 40.7303 209.435 41.8745ZM233.752 42.3471V41.8247C233.752 39.8515 234.034 38.0357 234.598 36.3775C235.161 34.7027 235.982 33.2518 237.06 32.0247C238.138 30.7977 239.464 29.8442 241.04 29.1643C242.615 28.4679 244.422 28.1197 246.462 28.1197C248.502 28.1197 250.317 28.4679 251.909 29.1643C253.501 29.8442 254.836 30.7977 255.914 32.0247C257.008 33.2518 257.837 34.7027 258.401 36.3775C258.965 38.0357 259.247 39.8515 259.247 41.8247V42.3471C259.247 44.3037 258.965 46.1195 258.401 47.7943C257.837 49.4525 257.008 50.9034 255.914 52.147C254.836 53.3741 253.509 54.3276 251.934 55.0075C250.359 55.6873 248.551 56.0272 246.512 56.0272C244.472 56.0272 242.656 55.6873 241.065 55.0075C239.489 54.3276 238.154 53.3741 237.06 52.147C235.982 50.9034 235.161 49.4525 234.598 47.7943C234.034 46.1195 233.752 44.3037 233.752 42.3471ZM240.915 41.8247V42.3471C240.915 43.4746 241.015 44.5276 241.214 45.5059C241.413 46.4843 241.728 47.3465 242.159 48.0927C242.607 48.8223 243.187 49.3944 243.9 49.809C244.613 50.2235 245.484 50.4308 246.512 50.4308C247.507 50.4308 248.361 50.2235 249.074 49.809C249.787 49.3944 250.359 48.8223 250.79 48.0927C251.221 47.3465 251.536 46.4843 251.735 45.5059C251.951 44.5276 252.058 43.4746 252.058 42.3471V41.8247C252.058 40.7303 251.951 39.7022 251.735 38.7405C251.536 37.7621 251.213 36.8999 250.765 36.1537C250.334 35.3909 249.762 34.7939 249.049 34.3628C248.336 33.9317 247.474 33.7161 246.462 33.7161C245.451 33.7161 244.588 33.9317 243.875 34.3628C243.179 34.7939 242.607 35.3909 242.159 36.1537C241.728 36.8999 241.413 37.7621 241.214 38.7405C241.015 39.7022 240.915 40.7303 240.915 41.8247ZM273.614 34.4872V55.5298H266.451V28.6171H273.192L273.614 34.4872ZM281.723 28.443L281.599 35.0841C281.25 35.0344 280.828 34.9929 280.33 34.9598C279.849 34.91 279.41 34.8851 279.012 34.8851C278 34.8851 277.122 35.0178 276.375 35.2831C275.646 35.5318 275.032 35.9049 274.535 36.4024C274.054 36.8999 273.689 37.5051 273.44 38.2181C273.208 38.9312 273.076 39.7437 273.042 40.6557L271.6 40.208C271.6 38.4669 271.774 36.8667 272.122 35.4075C272.47 33.9317 272.976 32.6466 273.639 31.5522C274.319 30.4577 275.148 29.6121 276.127 29.0151C277.105 28.4181 278.224 28.1197 279.484 28.1197C279.882 28.1197 280.289 28.1528 280.703 28.2192C281.118 28.2689 281.458 28.3435 281.723 28.443Z" fill="#1D2730"/>
<rect x="8.83691" y="0.0400391" width="7.29735" height="62.0275" rx="3.64868" transform="rotate(8.19041 8.83691 0.0400391)" fill="#08C9C9"/>
</svg>
